# xmcd
#
# Track frame offsets: 
#        151
#        13946
#        28019
#        42062
#        56132
#        70427
#        84331
#        97981
#        115238
#        133637
#        147023
#        161209
#        173913
#        193062
#        212618
#        226814
#        239907
#        253921
#        268757
#        282382
#
# Disc length: 3925 seconds
#
# Revision: 1
# Processed by: cddbd v1.5.2PL0 Copyright (c) Steve Scherf et al.
# Submitted via: ExactAudioCopy v1.1
#
DISCID=2d0f5314
DTITLE=Various Artist - Dixieland
DYEAR=1998
DGENRE=Jazz
TTITLE0=George Wettling's Chicago Rhythm Kings - I've Found A New Baby
TTITLE1=George Wettling's Chicago Rhythm Kings - Bugle Call Rag
TTITLE2=George Wettling's Chicago Rhythm Kings - I Wish I Could Shimmy
TTITLE2=Like My Sister Kate
TTITLE3=George Wettling's Chicago Rhythm Kings - The Darktown Strutter
TTITLE3='s Ball
TTITLE4=George Wettling's Chicago Rhythm Kings - Struttin' With Some B
TTITLE4=arbeque
TTITLE5=George Wettling's Chicago Rhythm Kings - How Come You Do Me Li
TTITLE5=ke You Do
TTITLE6=George Wettling's Chicago Rhythm Kings - Heebie Jeebies
TTITLE7=George Wettling's New Yorkers - Somebody Loves Me
TTITLE8=George Wettling's New Yorkers - Too Marvelous For Words
TTITLE9=George Wettling's Chicago Rhythm Kings - At The Jazz Band Ball
TTITLE10=Wild Bill And His Commodores - Muskrat Ramble
TTITLE11=Wild Bill And His Commodores - Riverboat Shuffle
TTITLE12=Wild Bill And His Commodores - That's A Plenty
TTITLE13=Wild Bill And His Commodores - Panama
TTITLE14=Wild Bill And His Commodores - Original Dixieland One Step
TTITLE15=Wild Bill And His Commodores - Baby, Won't You Please Come Ho
TTITLE15=me
TTITLE16=Muggsy Spanier And His Ragtime Band - Riverside Blues
TTITLE17=Muggsy Spanier And His Ragtime Band - Rosetta
TTITLE18=Eddie Condon And His Band - Rose Room
TTITLE19=Eddie Condon And His Band - Fidgety Feet
EXTD=YEAR: 1998
EXTT0=
EXTT1=
EXTT2=
EXTT3=
EXTT4=
EXTT5=
EXTT6=
EXTT7=
EXTT8=
EXTT9=
EXTT10=
EXTT11=
EXTT12=
EXTT13=
EXTT14=
EXTT15=
EXTT16=
EXTT17=
EXTT18=
EXTT19=
PLAYORDER=
